<svg width="133" height="138" viewBox="0 0 133 138" fill="none" xmlns="http://www.w3.org/2000/svg">
<path fill-rule="evenodd" clip-rule="evenodd" d="M102.432 4.99843C84.9865 -0.477978 42.8601 -5.90467 7.76426 14.6873C2.75369 17.6271 -0.261631 23.1777 0.0178849 29.1167C1.30156 56.3911 15.0267 109.127 64.0252 136.981C67.5692 138.995 72.0432 137.697 74.0179 134.078C75.9934 130.46 74.7194 125.892 71.1745 123.877C28.3282 99.5207 15.8468 52.8731 14.6949 28.397C14.682 28.1235 14.817 27.8487 15.0871 27.6903C30.1689 18.8413 47.0716 15.5352 62.1685 15.0583C77.2692 14.5815 90.4804 16.9382 98.1124 19.334C101.99 20.5511 106.101 18.3306 107.294 14.3714C108.488 10.4116 106.309 6.2157 102.432 4.99843Z" fill="#FCFCFC"/>
<path fill-rule="evenodd" clip-rule="evenodd" d="M131.853 21.1096C131.64 16.9724 128.181 13.7971 124.131 14.0143C120.08 14.2315 116.966 17.7594 117.179 21.8967C119.234 61.8027 98.8265 91.1618 86.0727 103.227C86.061 103.239 86.0496 103.249 86.0395 103.257C78.4424 99.8617 69.9715 92.1558 62.1059 82.9438C54.3265 73.8327 47.7979 64.0367 44.0817 57.6213C42.0167 54.0562 37.5116 52.8756 34.0194 54.9821C30.5264 57.0894 29.3676 61.6885 31.4333 65.2548C35.5477 72.3577 42.59 82.9149 51.0282 92.7976C59.3193 102.508 69.6413 112.388 80.415 117.115C85.9774 119.556 92.0304 118.041 96.0613 114.227C111.03 100.066 134.198 66.6647 131.853 21.1096Z" fill="#FCFCFC"/>
<path fill-rule="evenodd" clip-rule="evenodd" d="M34.4399 46.1451C39.048 44.2193 48.0101 41.5779 58.7786 40.4446C69.5372 39.3124 81.5995 39.7389 92.6664 43.4887C92.805 43.5357 92.8558 43.5977 92.8734 43.6245C92.8882 43.6469 92.8932 43.6671 92.8932 43.6671C92.2606 53.3748 87.8605 64.5587 76.718 79.1318C74.2212 82.3973 74.7917 87.1105 77.9908 89.6579C81.1896 92.2049 85.8056 91.6239 88.302 88.3592C100.45 72.4706 106.659 58.4626 107.556 44.6482C108.017 37.5388 103.569 31.3799 97.2958 29.2543C83.6423 24.628 69.3448 24.255 57.2719 25.5255C45.2091 26.795 34.8687 29.7589 28.8713 32.2658C25.1168 33.8351 23.3183 38.2146 24.857 42.0483C26.3954 45.8813 30.6861 47.7145 34.4399 46.1451Z" fill="#FCFCFC"/>
</svg>
